<svg width="177" height="179" viewBox="0 0 177 179" fill="none" xmlns="http://www.w3.org/2000/svg">
<circle cx="35" cy="17" r="17" fill="#018C8B"/>
<circle cx="137" cy="17" r="17" fill="#018C8B"/>
<path d="M30.4663 43.6151C20.3006 47.4667 4.94401 59.5993 2.78111 65.9545C0.834494 71.5393 7.97208 76.1613 22.8961 79.05C33.2781 80.7832 36.955 80.7832 46.4718 78.0871C59.0166 74.6206 77.6176 61.14 77.6176 55.5551C77.6176 53.4367 74.1569 49.9702 69.3986 47.0815C58.3677 40.5338 42.7948 39.1857 30.4663 43.6151ZM62.261 54.7848C64.6402 56.9032 63.775 58.2512 56.2048 63.0658C45.3903 69.9987 35.0084 71.9245 23.3287 69.2284C13.8119 66.9174 14.0282 65.5693 24.6264 57.2883C33.9269 49.9702 55.3397 48.6222 62.261 54.7848Z" fill="#018C8B"/>
<path d="M107.898 47.0818C102.491 49.9706 90.8112 58.6367 81.727 66.5325C72.6428 74.4284 60.9632 82.5168 55.7722 84.6352C44.3088 89.2571 27.6544 89.6423 14.8933 85.5981C-1.54476 80.3984 -2.18459 82.1316 2.5738 97.153C5.38557 105.627 10.3603 110.826 46.0482 142.795C68.1098 162.823 86.0528 179 87.3506 179C88.6483 179 108.331 162.245 131.041 141.832C176.246 101.197 178.625 98.1159 176.462 79.2429C174.948 66.5325 167.594 55.9406 155.266 48.6225C141.856 40.7267 121.308 40.1489 107.898 47.0818ZM145.533 54.5925C161.106 60.3699 169.973 79.4355 164.35 94.4568C162.836 98.8862 149.642 111.982 124.553 134.321L87.1343 167.638L49.9324 134.129C29.3848 115.641 12.7935 96.8463 12.7935 95.8834C12.7935 94.7279 19.6517 97.153 29.8174 97.7307C52.7441 98.8862 65.5052 93.8791 88.2157 74.2358C97.2999 66.34 108.114 58.2515 112.224 55.9406C121.092 51.3186 134.934 50.7409 145.533 54.5925Z" fill="#018C8B"/>
</svg>
